<svg xmlns="http://www.w3.org/2000/svg" viewBox="0 0 24 24" width="48" height="48" color="#000000" fill="none">
    <defs />
    <path fill="#141B34" d="M14.922,2.428 C16.202,3.644 17.771,5.32 19.024,7.242 C20.271,9.155 21.25,11.38 21.25,13.678 C21.25,18.146 17.743,22.75 12,22.75 C6.257,22.75 2.75,18.146 2.75,13.678 C2.75,11.38 3.729,9.155 4.976,7.242 C6.229,5.32 7.798,3.644 9.078,2.428 C10.732,0.857 13.268,0.857 14.922,2.428 Z M10.111,3.516 C8.877,4.687 7.399,6.273 6.233,8.061 C5.061,9.858 4.25,11.792 4.25,13.678 C4.25,17.415 7.18,21.25 12,21.25 C16.82,21.25 19.75,17.415 19.75,13.678 C19.75,11.792 18.938,9.858 17.767,8.061 C16.601,6.273 15.123,4.687 13.889,3.516 C12.814,2.495 11.186,2.495 10.111,3.516 Z M15.25,14 C15.25,13.586 15.586,13.25 16,13.25 C16.414,13.25 16.75,13.586 16.75,14 C16.75,16.623 14.623,18.75 12,18.75 C11.586,18.75 11.25,18.414 11.25,18 C11.25,17.586 11.586,17.25 12,17.25 C13.795,17.25 15.25,15.795 15.25,14 Z" />
</svg>